<?xml version="1.0" standalone="no"?><!DOCTYPE svg PUBLIC "-//W3C//DTD SVG 1.1//EN" "http://www.w3.org/Graphics/SVG/1.1/DTD/svg11.dtd"><svg t="1738439629506" class="icon" viewBox="0 0 1024 1024" version="1.1" xmlns="http://www.w3.org/2000/svg" p-id="8200" width="32" height="32" xmlns:xlink="http://www.w3.org/1999/xlink"><path d="M789.333333 128a192 192 0 0 1 191.786667 182.954667L981.333333 320v213.333333a192 192 0 0 1-182.954666 191.786667L789.333333 725.333333H110.976l118.314667 135.253334a21.333333 21.333333 0 0 1 0.682666 27.349333l-2.688 2.773333a21.333333 21.333333 0 0 1-27.306666 0.682667l-2.773334-2.688-149.248-170.624a21.333333 21.333333 0 0 1-3.84-21.76l1.536-3.2 2.304-3.114667 149.333334-170.709333a21.333333 21.333333 0 0 1 34.346666 24.96l-2.261333 3.114667L111.018667 682.666667H789.333333a149.333333 149.333333 0 0 0 149.12-141.141334L938.666667 533.333333v-213.333333a149.333333 149.333333 0 0 0-141.141334-149.12L789.333333 170.666667H512a21.333333 21.333333 0 0 1-3.84-42.325334L512 128h277.333333z" fill="#d8d8d8" p-id="8201"></path></svg>